<?xml version="1.0" encoding="UTF-8"?>
<!DOCTYPE svg PUBLIC "-//W3C//DTD SVG 1.1//EN" "http://www.w3.org/Graphics/SVG/1.1/DTD/svg11.dtd">
<svg xmlns="http://www.w3.org/2000/svg" version="1.1" width="24px" height="24px" style="shape-rendering:geometricPrecision; text-rendering:geometricPrecision; image-rendering:optimizeQuality; fill-rule:evenodd; clip-rule:evenodd" xmlns:xlink="http://www.w3.org/1999/xlink">
<g><path style="opacity:0.82" fill="#f02a3b" d="M 21.5,11.5 C 21.1667,11.5 20.8333,11.5 20.5,11.5C 20.5,10.8333 20.5,10.1667 20.5,9.5C 20.7373,8.20895 20.404,7.20895 19.5,6.5C 18.8658,5.05322 17.6991,4.38655 16,4.5C 13,5.83333 10,5.83333 7,4.5C 5.30085,4.38655 4.13419,5.05322 3.5,6.5C 2.59603,7.20895 2.26269,8.20895 2.5,9.5C 2.55688,10.609 2.89022,11.609 3.5,12.5C 3.5,12.8333 3.5,13.1667 3.5,13.5C 3.16667,13.5 2.83333,13.5 2.5,13.5C 1.44484,10.9272 1.27817,8.26051 2,5.5C 3.29911,4.02026 4.96578,3.3536 7,3.5C 11.0911,3.88017 15.2578,4.04684 19.5,4C 21.2785,6.13544 21.9452,8.63544 21.5,11.5 Z"/></g>
<g><path style="opacity:1" fill="#f30102" d="M 19.5,6.5 C 14.1667,7.83333 8.83333,7.83333 3.5,6.5C 4.13419,5.05322 5.30085,4.38655 7,4.5C 10,5.83333 13,5.83333 16,4.5C 17.6991,4.38655 18.8658,5.05322 19.5,6.5 Z"/></g>
<g><path style="opacity:1" fill="#eb0000" d="M 3.5,6.5 C 8.83333,7.83333 14.1667,7.83333 19.5,6.5C 20.404,7.20895 20.7373,8.20895 20.5,9.5C 14.5,9.5 8.5,9.5 2.5,9.5C 2.26269,8.20895 2.59603,7.20895 3.5,6.5 Z"/></g>
<g><path style="opacity:1" fill="#df0000" d="M 2.5,9.5 C 8.5,9.5 14.5,9.5 20.5,9.5C 20.5,10.1667 20.5,10.8333 20.5,11.5C 19.8333,11.5 19.5,11.8333 19.5,12.5C 14.1667,12.5 8.83333,12.5 3.5,12.5C 2.89022,11.609 2.55688,10.609 2.5,9.5 Z"/></g>
<g><path style="opacity:1" fill="#ce0000" d="M 3.5,13.5 C 3.5,13.1667 3.5,12.8333 3.5,12.5C 8.83333,12.5 14.1667,12.5 19.5,12.5C 14.5978,18.7772 9.26447,19.1106 3.5,13.5 Z"/></g>
<g><path style="opacity:1" fill="#ad060f" d="M 20.5,11.5 C 20.8333,11.5 21.1667,11.5 21.5,11.5C 19.1881,15.8119 15.8548,19.1452 11.5,21.5C 7.86296,19.5204 4.86296,16.8537 2.5,13.5C 2.83333,13.5 3.16667,13.5 3.5,13.5C 9.26447,19.1106 14.5978,18.7772 19.5,12.5C 19.5,11.8333 19.8333,11.5 20.5,11.5 Z"/></g>
</svg>
